Coordinates
version=1
nRows=14
nColumns=40
inDegrees=yes

Units are S.I. units (second, meters, Newtons, ...)
Angles are in degrees.

endheader
time	pelvis_tilt	pelvis_list	pelvis_rotation	pelvis_tx	pelvis_ty	pelvis_tz	hip_flexion_r	hip_adduction_r	hip_rotation_r	knee_angle_r	knee_angle_r_beta	ankle_angle_r	subtalar_angle_r	mtp_angle_r	hip_flexion_l	hip_adduction_l	hip_rotation_l	knee_angle_l	knee_angle_l_beta	ankle_angle_l	subtalar_angle_l	mtp_angle_l	lumbar_extension	lumbar_bending	lumbar_rotation	arm_flex_r	arm_add_r	arm_rot_r	elbow_flex_r	pro_sup_r	wrist_flex_r	wrist_dev_r	arm_flex_l	arm_add_l	arm_rot_l	elbow_flex_l	pro_sup_l	wrist_flex_l	wrist_dev_l
     28.21000000	     -5.43996138	     -5.96992569	      2.74655976	      1.02709489	      0.92926149	      0.46642879	     10.94428292	      5.44453581	    -13.84847854	     13.07987379	     13.07987379	     10.10354889	     -3.10897791	     -3.39676154	     37.69281463	    -10.61706645	      2.83030368	     51.06306048	     51.06306048	     12.67003867	    -19.14934415	     19.34639123	    -11.81307483	      5.54404928	      2.69965504	     29.07457091	    -16.32990421	     -3.10832788	     82.88705339	     44.47216183	      0.00000000	      0.00000000	      2.25721556	     -7.58494133	      3.60327388	     26.60874323	     45.66672094	      0.00000000	      0.00000000
     28.22200000	     -5.56265420	     -5.80740913	      3.05037567	      1.02587539	      0.92920932	      0.46580503	     10.49289937	      5.26345446	    -14.01973893	     12.80493387	     12.80493387	     10.37841078	     -3.03518979	     -3.49519041	     38.02138082	     -9.87831614	      3.29096231	     47.53187578	     47.53187578	     12.49263858	    -19.01023697	     18.89262142	    -11.82751449	      5.36143728	      2.33612771	     30.98070965	    -15.95956086	     -3.07304138	     86.09251298	     44.38931107	      0.00000000	      0.00000000	      1.26822504	     -7.47825270	      3.95789684	     25.80605049	     45.59108861	      0.00000000	      0.00000000
     28.23400000	     -5.78880297	     -5.59017615	      3.29938224	      1.02463088	      0.92899007	      0.46504929	     10.19453717	      5.01054566	    -14.09892556	     12.59860368	     12.59860368	     10.64454284	     -3.06524394	     -3.58219062	     38.32313735	     -9.06377891	      3.80526318	     43.95057193	     43.95057193	     12.32621142	    -18.65832243	     18.90632090	    -11.65785238	      5.10869588	      2.42780342	     33.02308658	    -16.09711663	     -3.24388426	     87.95425691	     44.34872249	      0.00000000	      0.00000000	      0.47405909	     -7.31066772	      4.11011614	     25.36196528	     45.55172550	      0.00000000	      0.00000000
     28.24600000	     -5.82194325	     -5.43887924	      3.59750478	      1.02369242	      0.92887569	      0.46415671	      9.66619827	      4.77958713	    -14.52951400	     12.42820658	     12.42820658	     10.98890653	     -2.53299571	     -3.88122463	     38.14491726	     -8.37642390	      4.28020406	     40.02900134	     40.02900134	     10.83420725	    -18.27257208	     15.20837099	    -11.84790036	      4.96670450	      2.97474345	     33.73541199	    -16.70159785	     -3.41222029	     93.54621663	     44.24448298	      0.00000000	      0.00000000	      0.05258849	     -7.19511025	      5.25543866	     24.59902099	     45.34285976	      0.00000000	      0.00000000
     28.25800000	     -6.03191453	     -5.33775829	      3.85940813	      1.02269841	      0.92842361	      0.46314519	      9.35837252	      4.63225327	    -14.63479212	     12.27446836	     12.27446836	     11.26992350	     -2.61169010	     -3.96995921	     38.31325280	     -7.73577299	      4.80489643	     36.66973023	     36.66973023	     10.88788356	    -17.20860513	     15.37625880	    -11.64878178	      4.87057455	      3.01121774	     35.79321279	    -16.61900853	     -3.61334896	     94.97579101	     44.21915681	      0.00000000	      0.00000000	     -0.71198654	     -7.03286589	      5.39366406	     24.21571777	     45.30566781	      0.00000000	      0.00000000
     28.27000000	     -6.02862814	     -5.20372178	      4.13609718	      1.02203641	      0.92822517	      0.46205907	      8.74733192	      4.44428583	    -14.96005741	     12.04959890	     12.04959890	     11.59439031	     -2.22372359	     -4.11219682	     38.08277720	     -7.13162524	      5.22942036	     33.33236742	     33.33236742	     10.58686129	    -16.11020497	     14.63989456	    -11.79757769	      4.76459671	      2.57582875	     37.58604064	    -15.94441137	     -3.32338026	     98.30156458	     44.13289713	      0.00000000	      0.00000000	     -1.66787128	     -6.97854226	      5.74317057	     23.79344884	     45.22596165	      0.00000000	      0.00000000
     28.28200000	     -6.08016390	     -5.11322836	      4.35395295	      1.02153460	      0.92786281	      0.46092049	      8.22945839	      4.30473158	    -15.12835893	     11.89687034	     11.89687034	     11.93139004	     -2.04183317	     -4.22431287	     37.93521551	     -6.71196089	      5.28271315	     30.37600562	     30.37600562	     10.55655237	    -14.59076963	     14.36230976	    -11.78592717	      4.69979184	      2.68084999	     39.28329417	    -15.86089496	     -3.27559451	    100.29745104	     44.08805406	      0.00000000	      0.00000000	     -2.40222381	     -6.86706216	      5.91684341	     23.60863391	     45.18097285	      0.00000000	      0.00000000
     28.29400000	     -6.15998961	     -5.07316066	      4.55384031	      1.02113074	      0.92735964	      0.45975151	      7.70903024	      4.22718668	    -15.33253764	     11.68235450	     11.68235450	     12.23742425	     -1.81935311	     -4.29762260	     37.82525576	     -6.38786508	      5.17138739	     27.77570141	     27.77570141	     10.49058710	    -13.10687660	     14.21865029	    -11.73269480	      4.68130349	      2.73898134	     40.99120988	    -15.71107674	     -3.17282734	    102.31067735	     44.03919922	      0.00000000	      0.00000000	     -3.08536623	     -6.72604620	      6.04816386	     23.50013113	     45.14416739	      0.00000000	      0.00000000
     28.30600000	     -6.19049760	     -5.19096899	      4.72927711	      1.02111364	      0.92672600	      0.45853524	      7.07081746	      4.31195857	    -15.73848231	     11.38845275	     11.38845275	     12.61905772	     -1.17898751	     -4.29043790	     37.71142495	     -6.28742689	      4.82572393	     25.64550752	     25.64550752	     10.30159919	    -11.77931771	     13.39560818	    -11.73273425	      4.84549520	      2.93281666	     42.25321101	    -15.81462937	     -2.82745116	    105.29946309	     43.97311050	      0.00000000	      0.00000000	     -3.88118828	     -6.64826672	      6.29288523	     23.85283052	     45.08276367	      0.00000000	      0.00000000
     28.31800000	     -6.16666288	     -5.15515462	      4.84922514	      1.02120779	      0.92627641	      0.45728507	      6.41169173	      4.26019426	    -15.83955363	     11.19054287	     11.19054287	     12.96600767	     -0.97501800	     -4.27954041	     37.38752252	     -6.08751545	      4.23453759	     23.74184857	     23.74184857	     10.11168478	    -10.81422575	     13.40620316	    -11.76963544	      4.81832353	      3.07640352	     43.68020553	    -15.59992972	     -2.70240563	    106.89719287	     43.94176562	      0.00000000	      0.00000000	     -4.58624310	     -6.55437223	      6.42000269	     23.86581236	     45.04759265	      0.00000000	      0.00000000
     28.33000000	     -6.20652751	     -5.25396627	      4.97098389	      1.02157926	      0.92553355	      0.45594080	      5.76509545	      4.33433150	    -16.11441544	     10.91393290	     10.91393290	     13.37208433	     -0.43951425	     -4.09564656	     37.21235321	     -6.03208215	      3.51473696	     22.39221684	     22.39221684	      9.78625982	    -10.15345658	     13.08955782	    -11.63967457	      4.98398902	      3.28232166	     44.91458087	    -15.63855323	     -2.35426141	    108.89727755	     43.91341474	      0.00000000	      0.00000000	     -5.30252026	     -6.49013868	      6.59896239	     24.40732603	     45.00445253	      0.00000000	      0.00000000
     28.34200000	     -6.20753557	     -5.29230402	      5.02420681	      1.02217431	      0.92478730	      0.45459310	      5.08405457	      4.36157003	    -16.17779027	     10.68233178	     10.68233178	     13.75677449	     -0.17874198	     -4.03316150	     36.89902316	     -5.96573860	      2.68650538	     21.37351248	     21.37351248	      9.47676062	     -9.86951640	     13.17930844	    -11.53205743	      5.03508060	      3.39717180	     46.06995807	    -15.37086361	     -2.12666945	    110.14662632	     43.88915389	      0.00000000	      0.00000000	     -5.91875259	     -6.41816612	      6.66684855	     24.51430997	     44.98368079	      0.00000000	      0.00000000
     28.35400000	     -6.21115560	     -5.38157265	      5.04814651	      1.02302064	      0.92390005	      0.45318049	      4.39568201	      4.41695718	    -16.39436882	     10.48062242	     10.48062242	     14.29378239	      0.42423990	     -3.65054630	     36.56502968	     -5.98720915	      1.80240862	     20.73729799	     20.73729799	      8.87983154	     -9.85612403	     12.68719510	    -11.39935195	      5.15902831	      3.60742754	     47.00773129	    -15.40328299	     -1.62307698	    111.64755897	     43.88290718	      0.00000000	      0.00000000	     -6.70670260	     -6.40525912	      6.72376943	     25.37442354	     44.96723981	      0.00000000	      0.00000000
     28.36600000	     -6.26143527	     -5.44629191	      5.01765650	      1.02403263	      0.92286558	      0.45179208	      3.75769091	      4.46519905	    -16.36217997	     10.27826264	     10.27826264	     14.67755352	      0.62929022	     -3.62352357	     36.20684824	     -6.01856670	      0.94659150	     20.39877009	     20.39877009	      8.38063175	    -10.01968668	     12.78756987	    -11.15074170	      5.22582653	      3.72526164	     47.89580334	    -15.09290727	     -1.44441853	    112.48390514	     43.86491919	      0.00000000	      0.00000000	     -7.14419177	     -6.34990297	      6.74034979	     25.40737311	     44.95913618	      0.00000000	      0.00000000
